<?xml version="1.0" encoding="UTF-8" standalone="no"?><!DOCTYPE svg PUBLIC "-//W3C//DTD SVG 1.1//EN" "http://www.w3.org/Graphics/SVG/1.1/DTD/svg11.dtd"><svg width="100%" height="100%" viewBox="0 0 300 300" version="1.1" xmlns="http://www.w3.org/2000/svg" xmlns:xlink="http://www.w3.org/1999/xlink" xml:space="preserve" xmlns:serif="http://www.serif.com/" style="fill-rule:evenodd;clip-rule:evenodd;stroke-linejoin:round;stroke-miterlimit:2;"><g id="Page-1"><circle cx="150" cy="150" r="150" style="fill:#ebebeb;"/><clipPath id="_clip1"><circle cx="150" cy="150" r="150"/></clipPath><g clip-path="url(#_clip1)"><g id="Social-Icons---Circle"><g id="Facebook"><path id="Oval" d="M309.026,33.333c0,-18.397 -14.936,-33.333 -33.333,-33.333l-271.526,0c-18.398,0 -33.334,14.936 -33.334,33.333l0,233.334c0,18.397 14.936,33.333 33.334,33.333l271.526,0c18.397,0 33.333,-14.936 33.333,-33.333l0,-233.334Z" style="fill:#4460a0;"/><path d="M226.934,55.905l0,38.794l-23.024,0.06c-18.048,0 -21.526,8.574 -21.526,21.106l0,27.761l42.991,0l-5.576,43.411l-37.415,0l0,112.963l-44.843,0l0,-112.963l-37.541,0l0,-43.411l37.541,0l0,-32.018c0,-37.175 22.658,-57.441 55.876,-57.441c15.835,0 29.5,1.199 33.517,1.738Z" style="fill:#fff;"/></g></g></g></g></svg>